<svg viewBox="0 0 1700 1230" xmlns="http://www.w3.org/2000/svg" font-family="Helvetica, Arial, sans-serif">
<rect x="0" y="0" width="1700" height="1230" fill="#FAFAFA"/>
<text x="40" y="36" font-family="Helvetica, Arial, sans-serif" font-size="22" font-weight="700" fill="#2B2F36" text-anchor="start">Meridian College — AI Assistant</text>
<text x="40" y="56" font-family="Helvetica, Arial, sans-serif" font-size="12.5" font-weight="400" fill="#9AA0AA" text-anchor="start">Desktop Wireframes (Low-Fidelity) — Task 2: UI/UX Wireframing &amp; Design</text>
<text x="40" y="76" font-family="Helvetica, Arial, sans-serif" font-size="15" font-weight="700" fill="#2B2F36" text-anchor="start">01  Login Screen</text><rect x="40" y="90" width="780" height="500" fill="#FFFFFF" stroke="#2B2F36" stroke-width="2" rx="6"/><rect x="40" y="90" width="780" height="22" fill="#EDEFF2" stroke="#2B2F36" stroke-width="2" rx="6"/><circle cx="54" cy="101" r="3.5" fill="none" stroke="#9AA0AA" stroke-width="1.2"/><circle cx="66" cy="101" r="3.5" fill="none" stroke="#9AA0AA" stroke-width="1.2"/><circle cx="78" cy="101" r="3.5" fill="none" stroke="#9AA0AA" stroke-width="1.2"/>
<circle cx="430.0" cy="172" r="18" fill="none" stroke="#2B2F36" stroke-width="1.8"/><text x="430.0" y="177" font-family="Helvetica, Arial, sans-serif" font-size="16" font-weight="700" fill="#2B2F36" text-anchor="middle">M</text>
<rect x="340.0" y="204" width="180" height="14" fill="#D8DBE0" rx="2"/>
<rect x="370.0" y="224" width="120" height="9" fill="#EDEFF2" rx="2"/>
<rect x="220.0" y="252" width="134" height="30" fill="#EDEFF2" stroke="#9AA0AA" stroke-width="1.2" rx="4"/>
<text x="287.0" y="272" font-family="Helvetica, Arial, sans-serif" font-size="10.5" font-weight="600" fill="#2B2F36" text-anchor="middle">Student</text>
<rect x="360.0" y="252" width="134" height="30" fill="#FFFFFF" stroke="#9AA0AA" stroke-width="1.2" rx="4"/>
<text x="427.0" y="272" font-family="Helvetica, Arial, sans-serif" font-size="10.5" font-weight="600" fill="#2B2F36" text-anchor="middle">Faculty</text>
<rect x="500.0" y="252" width="134" height="30" fill="#FFFFFF" stroke="#9AA0AA" stroke-width="1.2" rx="4"/>
<text x="567.0" y="272" font-family="Helvetica, Arial, sans-serif" font-size="10.5" font-weight="600" fill="#2B2F36" text-anchor="middle">Admin</text>
<text x="280.0" y="301" font-family="Helvetica, Arial, sans-serif" font-size="9.5" font-weight="700" fill="#9AA0AA" text-anchor="start">USERNAME</text><rect x="280.0" y="307" width="300" height="32" fill="#FFFFFF" stroke="#9AA0AA" stroke-width="1.3" rx="4"/>
<text x="280.0" y="356" font-family="Helvetica, Arial, sans-serif" font-size="9.5" font-weight="700" fill="#9AA0AA" text-anchor="start">PASSWORD</text><rect x="280.0" y="362" width="300" height="32" fill="#FFFFFF" stroke="#9AA0AA" stroke-width="1.3" rx="4"/>
<rect x="280.0" y="412" width="300" height="34" fill="#2B2F36" stroke="#2B2F36" stroke-width="1.6" rx="5"/><text x="430.0" y="433.0" font-family="Helvetica, Arial, sans-serif" font-size="12.5" font-weight="700" fill="#FFFFFF" text-anchor="middle">SIGN IN</text>
<rect x="280.0" y="462" width="300" height="70" fill="#EDEFF2" stroke="#9AA0AA" stroke-width="1" rx="4"/>
<rect x="296.0" y="476" width="120" height="8" fill="#D8DBE0" rx="2"/>
<rect x="296.0" y="492" width="160" height="8" fill="#D8DBE0" rx="2"/>
<rect x="296.0" y="508" width="100" height="8" fill="#D8DBE0" rx="2"/>
<line x1="580.0" y1="323" x2="650.0" y2="282" stroke="#C0392B" stroke-width="1.2" stroke-dasharray="4,3"/><circle cx="580.0" cy="323" r="2.5" fill="#C0392B"/><text x="656.0" y="286" font-family="Helvetica, Arial, sans-serif" font-size="10.5" font-weight="600" fill="#C0392B" text-anchor="start">Role-based login</text>
<line x1="790" y1="477" x2="730" y2="442" stroke="#C0392B" stroke-width="1.2" stroke-dasharray="4,3"/><circle cx="790" cy="477" r="2.5" fill="#C0392B"/><text x="736" y="446" font-family="Helvetica, Arial, sans-serif" font-size="10.5" font-weight="600" fill="#C0392B" text-anchor="start">Demo creds panel</text>
<text x="880" y="76" font-family="Helvetica, Arial, sans-serif" font-size="15" font-weight="700" fill="#2B2F36" text-anchor="start">02  Student Dashboard</text><rect x="880" y="90" width="780" height="500" fill="#FFFFFF" stroke="#2B2F36" stroke-width="2" rx="6"/><rect x="880" y="90" width="780" height="22" fill="#EDEFF2" stroke="#2B2F36" stroke-width="2" rx="6"/><circle cx="894" cy="101" r="3.5" fill="none" stroke="#9AA0AA" stroke-width="1.2"/><circle cx="906" cy="101" r="3.5" fill="none" stroke="#9AA0AA" stroke-width="1.2"/><circle cx="918" cy="101" r="3.5" fill="none" stroke="#9AA0AA" stroke-width="1.2"/>
<rect x="880" y="112" width="170" height="478" fill="#3A3F4A" stroke="none" stroke-width="1.5" rx="0"/>
<circle cx="910" cy="142" r="12" fill="none" stroke="#FFFFFF" stroke-width="1.8"/><text x="910" y="147" font-family="Helvetica, Arial, sans-serif" font-size="16" font-weight="700" fill="#FFFFFF" text-anchor="middle">M</text>
<rect x="930" y="136" width="80" height="10" fill="#5A6070" rx="2"/>
<rect x="894" y="172" width="142" height="30" fill="#4A5160" stroke="none" stroke-width="0" rx="4"/><circle cx="910" cy="187.0" r="5" fill="none" stroke="#FFFFFF" stroke-width="1.4"/><text x="926" y="191.0" font-family="Helvetica, Arial, sans-serif" font-size="11.5" font-weight="600" fill="#FFFFFF" text-anchor="start">Profile</text>
<rect x="894" y="210" width="142" height="30" fill="none" stroke="none" stroke-width="0" rx="4"/><circle cx="910" cy="225.0" r="5" fill="none" stroke="#FFFFFF" stroke-width="1.4"/><text x="926" y="229.0" font-family="Helvetica, Arial, sans-serif" font-size="11.5" font-weight="400" fill="#FFFFFF" text-anchor="start">Attendance</text>
<rect x="894" y="248" width="142" height="30" fill="none" stroke="none" stroke-width="0" rx="4"/><circle cx="910" cy="263.0" r="5" fill="none" stroke="#FFFFFF" stroke-width="1.4"/><text x="926" y="267.0" font-family="Helvetica, Arial, sans-serif" font-size="11.5" font-weight="400" fill="#FFFFFF" text-anchor="start">Marks</text>
<rect x="894" y="286" width="142" height="30" fill="none" stroke="none" stroke-width="0" rx="4"/><circle cx="910" cy="301.0" r="5" fill="none" stroke="#FFFFFF" stroke-width="1.4"/><text x="926" y="305.0" font-family="Helvetica, Arial, sans-serif" font-size="11.5" font-weight="400" fill="#FFFFFF" text-anchor="start">Timetable</text>
<rect x="894" y="324" width="142" height="30" fill="none" stroke="none" stroke-width="0" rx="4"/><circle cx="910" cy="339.0" r="5" fill="none" stroke="#FFFFFF" stroke-width="1.4"/><text x="926" y="343.0" font-family="Helvetica, Arial, sans-serif" font-size="11.5" font-weight="400" fill="#FFFFFF" text-anchor="start">Ask AI Assistant</text>
<rect x="894" y="540" width="142" height="30" fill="none" stroke="none" stroke-width="0" rx="4"/><circle cx="910" cy="555.0" r="5" fill="none" stroke="#FFFFFF" stroke-width="1.4"/><text x="926" y="559.0" font-family="Helvetica, Arial, sans-serif" font-size="11.5" font-weight="400" fill="#FFFFFF" text-anchor="start">Sign out</text>
<rect x="1074" y="128" width="236.04" height="190" fill="#3A3F4A" stroke="none" stroke-width="1.5" rx="8"/>
<circle cx="1108" cy="158" r="16" fill="#5A6070"/>
<rect x="1134" y="150" width="90" height="10" fill="#6A7080" rx="2"/>
<rect x="1134" y="166" width="70" height="7" fill="#5A6070" rx="2"/>
<rect x="1090" y="202" width="204.04" height="7" fill="#D8DBE0" rx="2"/>
<rect x="1090" y="226" width="204.04" height="7" fill="#D8DBE0" rx="2"/>
<rect x="1090" y="250" width="204.04" height="7" fill="#D8DBE0" rx="2"/>
<rect x="1090" y="287" width="204.04" height="16" fill="none" stroke="#5A6070" stroke-width="1" rx="2"/>
<rect x="1326.04" y="128" width="309.96" height="190" fill="#FFFFFF" stroke="#9AA0AA" stroke-width="1.3" rx="4"/>
<rect x="1340.04" y="144" width="140" height="11" fill="#D8DBE0" rx="2"/>
<rect x="1340.04" y="166" width="265.96" height="130" fill="#FFFFFF" stroke="#9AA0AA" stroke-width="1.3" rx="4"/><rect x="1340.04" y="166" width="265.96" height="26.0" fill="#EDEFF2" stroke="#9AA0AA" stroke-width="1" rx="0"/><line x1="1340.04" y1="192.0" x2="1606.0" y2="192.0" stroke="#9AA0AA" stroke-width="1"/><rect x="1354.04" y="200.0" width="104.97999999999999" height="8" fill="#D8DBE0" rx="2"/><rect x="1487.02" y="200.0" width="104.97999999999999" height="8" fill="#D8DBE0" rx="2"/><line x1="1340.04" y1="218.0" x2="1606.0" y2="218.0" stroke="#9AA0AA" stroke-width="1"/><rect x="1354.04" y="226.0" width="104.97999999999999" height="8" fill="#EDEFF2" rx="2"/><rect x="1487.02" y="226.0" width="104.97999999999999" height="8" fill="#EDEFF2" rx="2"/><line x1="1340.04" y1="244.0" x2="1606.0" y2="244.0" stroke="#9AA0AA" stroke-width="1"/><rect x="1354.04" y="252.0" width="104.97999999999999" height="8" fill="#D8DBE0" rx="2"/><rect x="1487.02" y="252.0" width="104.97999999999999" height="8" fill="#D8DBE0" rx="2"/><line x1="1340.04" y1="270.0" x2="1606.0" y2="270.0" stroke="#9AA0AA" stroke-width="1"/><rect x="1354.04" y="278.0" width="104.97999999999999" height="8" fill="#EDEFF2" rx="2"/><rect x="1487.02" y="278.0" width="104.97999999999999" height="8" fill="#EDEFF2" rx="2"/><line x1="1473.02" y1="166" x2="1473.02" y2="296" stroke="#9AA0AA" stroke-width="1" opacity="0.5"/>
<rect x="1074" y="338" width="562" height="236" fill="#FFFFFF" stroke="#9AA0AA" stroke-width="1.3" rx="4"/><rect x="1074" y="338" width="562" height="47.2" fill="#EDEFF2" stroke="#9AA0AA" stroke-width="1" rx="0"/><line x1="1074" y1="385.2" x2="1636" y2="385.2" stroke="#9AA0AA" stroke-width="1"/><rect x="1088.0" y="403.8" width="112.5" height="8" fill="#D8DBE0" rx="2"/><rect x="1228.5" y="403.8" width="112.5" height="8" fill="#D8DBE0" rx="2"/><rect x="1369.0" y="403.8" width="112.5" height="8" fill="#D8DBE0" rx="2"/><rect x="1509.5" y="403.8" width="112.5" height="8" fill="#D8DBE0" rx="2"/><line x1="1074" y1="432.4" x2="1636" y2="432.4" stroke="#9AA0AA" stroke-width="1"/><rect x="1088.0" y="451.0" width="112.5" height="8" fill="#EDEFF2" rx="2"/><rect x="1228.5" y="451.0" width="112.5" height="8" fill="#EDEFF2" rx="2"/><rect x="1369.0" y="451.0" width="112.5" height="8" fill="#EDEFF2" rx="2"/><rect x="1509.5" y="451.0" width="112.5" height="8" fill="#EDEFF2" rx="2"/><line x1="1074" y1="479.59999999999997" x2="1636" y2="479.59999999999997" stroke="#9AA0AA" stroke-width="1"/><rect x="1088.0" y="498.2" width="112.5" height="8" fill="#D8DBE0" rx="2"/><rect x="1228.5" y="498.2" width="112.5" height="8" fill="#D8DBE0" rx="2"/><rect x="1369.0" y="498.2" width="112.5" height="8" fill="#D8DBE0" rx="2"/><rect x="1509.5" y="498.2" width="112.5" height="8" fill="#D8DBE0" rx="2"/><line x1="1074" y1="526.8" x2="1636" y2="526.8" stroke="#9AA0AA" stroke-width="1"/><rect x="1088.0" y="545.4" width="112.5" height="8" fill="#EDEFF2" rx="2"/><rect x="1228.5" y="545.4" width="112.5" height="8" fill="#EDEFF2" rx="2"/><rect x="1369.0" y="545.4" width="112.5" height="8" fill="#EDEFF2" rx="2"/><rect x="1509.5" y="545.4" width="112.5" height="8" fill="#EDEFF2" rx="2"/><line x1="1214.5" y1="338" x2="1214.5" y2="574" stroke="#9AA0AA" stroke-width="1" opacity="0.5"/><line x1="1355.0" y1="338" x2="1355.0" y2="574" stroke="#9AA0AA" stroke-width="1" opacity="0.5"/><line x1="1495.5" y1="338" x2="1495.5" y2="574" stroke="#9AA0AA" stroke-width="1" opacity="0.5"/>
<line x1="1626" y1="338" x2="1646" y2="362" stroke="#C0392B" stroke-width="1.2" stroke-dasharray="4,3"/><circle cx="1626" cy="338" r="2.5" fill="#C0392B"/><text x="1652" y="366" font-family="Helvetica, Arial, sans-serif" font-size="10.5" font-weight="600" fill="#C0392B" text-anchor="start">Attendance / marks table</text>
<text x="40" y="616" font-family="Helvetica, Arial, sans-serif" font-size="15" font-weight="700" fill="#2B2F36" text-anchor="start">03  Faculty Dashboard</text><rect x="40" y="630" width="780" height="500" fill="#FFFFFF" stroke="#2B2F36" stroke-width="2" rx="6"/><rect x="40" y="630" width="780" height="22" fill="#EDEFF2" stroke="#2B2F36" stroke-width="2" rx="6"/><circle cx="54" cy="641" r="3.5" fill="none" stroke="#9AA0AA" stroke-width="1.2"/><circle cx="66" cy="641" r="3.5" fill="none" stroke="#9AA0AA" stroke-width="1.2"/><circle cx="78" cy="641" r="3.5" fill="none" stroke="#9AA0AA" stroke-width="1.2"/>
<rect x="40" y="652" width="170" height="478" fill="#3A3F4A" stroke="none" stroke-width="1.5" rx="0"/>
<circle cx="70" cy="682" r="12" fill="none" stroke="#FFFFFF" stroke-width="1.8"/><text x="70" y="687" font-family="Helvetica, Arial, sans-serif" font-size="16" font-weight="700" fill="#FFFFFF" text-anchor="middle">M</text>
<rect x="90" y="676" width="80" height="10" fill="#5A6070" rx="2"/>
<rect x="54" y="712" width="142" height="30" fill="#4A5160" stroke="none" stroke-width="0" rx="4"/><circle cx="70" cy="727.0" r="5" fill="none" stroke="#FFFFFF" stroke-width="1.4"/><text x="86" y="731.0" font-family="Helvetica, Arial, sans-serif" font-size="11.5" font-weight="600" fill="#FFFFFF" text-anchor="start">Student Details</text>
<rect x="54" y="750" width="142" height="30" fill="none" stroke="none" stroke-width="0" rx="4"/><circle cx="70" cy="765.0" r="5" fill="none" stroke="#FFFFFF" stroke-width="1.4"/><text x="86" y="769.0" font-family="Helvetica, Arial, sans-serif" font-size="11.5" font-weight="400" fill="#FFFFFF" text-anchor="start">Add Attendance</text>
<rect x="54" y="788" width="142" height="30" fill="none" stroke="none" stroke-width="0" rx="4"/><circle cx="70" cy="803.0" r="5" fill="none" stroke="#FFFFFF" stroke-width="1.4"/><text x="86" y="807.0" font-family="Helvetica, Arial, sans-serif" font-size="11.5" font-weight="400" fill="#FFFFFF" text-anchor="start">Update Marks</text>
<rect x="54" y="1080" width="142" height="30" fill="none" stroke="none" stroke-width="0" rx="4"/><circle cx="70" cy="1095.0" r="5" fill="none" stroke="#FFFFFF" stroke-width="1.4"/><text x="86" y="1099.0" font-family="Helvetica, Arial, sans-serif" font-size="11.5" font-weight="400" fill="#FFFFFF" text-anchor="start">Sign out</text>
<rect x="234" y="672" width="160" height="12" fill="#D8DBE0" rx="2"/>
<rect x="234" y="692" width="110" height="8" fill="#EDEFF2" rx="2"/>
<rect x="234" y="716" width="562" height="398" fill="#FFFFFF" stroke="#9AA0AA" stroke-width="1.3" rx="4"/><rect x="234" y="716" width="562" height="56.857142857142854" fill="#EDEFF2" stroke="#9AA0AA" stroke-width="1" rx="0"/><line x1="234" y1="772.8571428571429" x2="796" y2="772.8571428571429" stroke="#9AA0AA" stroke-width="1"/><rect x="248.0" y="796.2857142857143" width="84.4" height="8" fill="#D8DBE0" rx="2"/><rect x="360.4" y="796.2857142857143" width="84.4" height="8" fill="#D8DBE0" rx="2"/><rect x="472.8" y="796.2857142857143" width="84.4" height="8" fill="#D8DBE0" rx="2"/><rect x="585.2" y="796.2857142857143" width="84.4" height="8" fill="#D8DBE0" rx="2"/><rect x="697.6" y="796.2857142857143" width="84.4" height="8" fill="#D8DBE0" rx="2"/><line x1="234" y1="829.7142857142858" x2="796" y2="829.7142857142858" stroke="#9AA0AA" stroke-width="1"/><rect x="248.0" y="853.1428571428572" width="84.4" height="8" fill="#EDEFF2" rx="2"/><rect x="360.4" y="853.1428571428572" width="84.4" height="8" fill="#EDEFF2" rx="2"/><rect x="472.8" y="853.1428571428572" width="84.4" height="8" fill="#EDEFF2" rx="2"/><rect x="585.2" y="853.1428571428572" width="84.4" height="8" fill="#EDEFF2" rx="2"/><rect x="697.6" y="853.1428571428572" width="84.4" height="8" fill="#EDEFF2" rx="2"/><line x1="234" y1="886.5714285714287" x2="796" y2="886.5714285714287" stroke="#9AA0AA" stroke-width="1"/><rect x="248.0" y="910.0000000000001" width="84.4" height="8" fill="#D8DBE0" rx="2"/><rect x="360.4" y="910.0000000000001" width="84.4" height="8" fill="#D8DBE0" rx="2"/><rect x="472.8" y="910.0000000000001" width="84.4" height="8" fill="#D8DBE0" rx="2"/><rect x="585.2" y="910.0000000000001" width="84.4" height="8" fill="#D8DBE0" rx="2"/><rect x="697.6" y="910.0000000000001" width="84.4" height="8" fill="#D8DBE0" rx="2"/><line x1="234" y1="943.4285714285716" x2="796" y2="943.4285714285716" stroke="#9AA0AA" stroke-width="1"/><rect x="248.0" y="966.857142857143" width="84.4" height="8" fill="#EDEFF2" rx="2"/><rect x="360.4" y="966.857142857143" width="84.4" height="8" fill="#EDEFF2" rx="2"/><rect x="472.8" y="966.857142857143" width="84.4" height="8" fill="#EDEFF2" rx="2"/><rect x="585.2" y="966.857142857143" width="84.4" height="8" fill="#EDEFF2" rx="2"/><rect x="697.6" y="966.857142857143" width="84.4" height="8" fill="#EDEFF2" rx="2"/><line x1="234" y1="1000.2857142857144" x2="796" y2="1000.2857142857144" stroke="#9AA0AA" stroke-width="1"/><rect x="248.0" y="1023.7142857142858" width="84.4" height="8" fill="#D8DBE0" rx="2"/><rect x="360.4" y="1023.7142857142858" width="84.4" height="8" fill="#D8DBE0" rx="2"/><rect x="472.8" y="1023.7142857142858" width="84.4" height="8" fill="#D8DBE0" rx="2"/><rect x="585.2" y="1023.7142857142858" width="84.4" height="8" fill="#D8DBE0" rx="2"/><rect x="697.6" y="1023.7142857142858" width="84.4" height="8" fill="#D8DBE0" rx="2"/><line x1="234" y1="1057.1428571428573" x2="796" y2="1057.1428571428573" stroke="#9AA0AA" stroke-width="1"/><rect x="248.0" y="1080.5714285714287" width="84.4" height="8" fill="#EDEFF2" rx="2"/><rect x="360.4" y="1080.5714285714287" width="84.4" height="8" fill="#EDEFF2" rx="2"/><rect x="472.8" y="1080.5714285714287" width="84.4" height="8" fill="#EDEFF2" rx="2"/><rect x="585.2" y="1080.5714285714287" width="84.4" height="8" fill="#EDEFF2" rx="2"/><rect x="697.6" y="1080.5714285714287" width="84.4" height="8" fill="#EDEFF2" rx="2"/><line x1="346.4" y1="716" x2="346.4" y2="1114" stroke="#9AA0AA" stroke-width="1" opacity="0.5"/><line x1="458.8" y1="716" x2="458.8" y2="1114" stroke="#9AA0AA" stroke-width="1" opacity="0.5"/><line x1="571.2" y1="716" x2="571.2" y2="1114" stroke="#9AA0AA" stroke-width="1" opacity="0.5"/><line x1="683.6" y1="716" x2="683.6" y2="1114" stroke="#9AA0AA" stroke-width="1" opacity="0.5"/>
<line x1="294" y1="716" x2="294" y2="688" stroke="#C0392B" stroke-width="1.2" stroke-dasharray="4,3"/><circle cx="294" cy="716" r="2.5" fill="#C0392B"/><text x="300" y="692" font-family="Helvetica, Arial, sans-serif" font-size="10.5" font-weight="600" fill="#C0392B" text-anchor="start">Sortable student list</text>
<text x="880" y="616" font-family="Helvetica, Arial, sans-serif" font-size="15" font-weight="700" fill="#2B2F36" text-anchor="start">04  Admin Dashboard</text><rect x="880" y="630" width="780" height="500" fill="#FFFFFF" stroke="#2B2F36" stroke-width="2" rx="6"/><rect x="880" y="630" width="780" height="22" fill="#EDEFF2" stroke="#2B2F36" stroke-width="2" rx="6"/><circle cx="894" cy="641" r="3.5" fill="none" stroke="#9AA0AA" stroke-width="1.2"/><circle cx="906" cy="641" r="3.5" fill="none" stroke="#9AA0AA" stroke-width="1.2"/><circle cx="918" cy="641" r="3.5" fill="none" stroke="#9AA0AA" stroke-width="1.2"/>
<rect x="880" y="652" width="170" height="478" fill="#3A3F4A" stroke="none" stroke-width="1.5" rx="0"/>
<circle cx="910" cy="682" r="12" fill="none" stroke="#FFFFFF" stroke-width="1.8"/><text x="910" y="687" font-family="Helvetica, Arial, sans-serif" font-size="16" font-weight="700" fill="#FFFFFF" text-anchor="middle">M</text>
<rect x="930" y="676" width="80" height="10" fill="#5A6070" rx="2"/>
<rect x="894" y="712" width="142" height="30" fill="#4A5160" stroke="none" stroke-width="0" rx="4"/><circle cx="910" cy="727.0" r="5" fill="none" stroke="#FFFFFF" stroke-width="1.4"/><text x="926" y="731.0" font-family="Helvetica, Arial, sans-serif" font-size="11.5" font-weight="600" fill="#FFFFFF" text-anchor="start">Reports</text>
<rect x="894" y="750" width="142" height="30" fill="none" stroke="none" stroke-width="0" rx="4"/><circle cx="910" cy="765.0" r="5" fill="none" stroke="#FFFFFF" stroke-width="1.4"/><text x="926" y="769.0" font-family="Helvetica, Arial, sans-serif" font-size="11.5" font-weight="400" fill="#FFFFFF" text-anchor="start">Add Student</text>
<rect x="894" y="788" width="142" height="30" fill="none" stroke="none" stroke-width="0" rx="4"/><circle cx="910" cy="803.0" r="5" fill="none" stroke="#FFFFFF" stroke-width="1.4"/><text x="926" y="807.0" font-family="Helvetica, Arial, sans-serif" font-size="11.5" font-weight="400" fill="#FFFFFF" text-anchor="start">Manage Faculty</text>
<rect x="894" y="826" width="142" height="30" fill="none" stroke="none" stroke-width="0" rx="4"/><circle cx="910" cy="841.0" r="5" fill="none" stroke="#FFFFFF" stroke-width="1.4"/><text x="926" y="845.0" font-family="Helvetica, Arial, sans-serif" font-size="11.5" font-weight="400" fill="#FFFFFF" text-anchor="start">Manage Courses</text>
<rect x="894" y="1080" width="142" height="30" fill="none" stroke="none" stroke-width="0" rx="4"/><circle cx="910" cy="1095.0" r="5" fill="none" stroke="#FFFFFF" stroke-width="1.4"/><text x="926" y="1099.0" font-family="Helvetica, Arial, sans-serif" font-size="11.5" font-weight="400" fill="#FFFFFF" text-anchor="start">Sign out</text>
<rect x="1074.0" y="668" width="176.66666666666666" height="80" fill="#FFFFFF" stroke="#9AA0AA" stroke-width="1.3" rx="4"/><rect x="1088.0" y="684" width="40" height="16" fill="#D8DBE0" rx="2"/><text x="1088.0" y="734" font-family="Helvetica, Arial, sans-serif" font-size="9" font-weight="700" fill="#9AA0AA" text-anchor="start">STUDENTS</text>
<rect x="1266.6666666666667" y="668" width="176.66666666666666" height="80" fill="#FFFFFF" stroke="#9AA0AA" stroke-width="1.3" rx="4"/><rect x="1280.6666666666667" y="684" width="40" height="16" fill="#D8DBE0" rx="2"/><text x="1280.6666666666667" y="734" font-family="Helvetica, Arial, sans-serif" font-size="9" font-weight="700" fill="#9AA0AA" text-anchor="start">FACULTY</text>
<rect x="1459.3333333333333" y="668" width="176.66666666666666" height="80" fill="#FFFFFF" stroke="#9AA0AA" stroke-width="1.3" rx="4"/><rect x="1473.3333333333333" y="684" width="40" height="16" fill="#D8DBE0" rx="2"/><text x="1473.3333333333333" y="734" font-family="Helvetica, Arial, sans-serif" font-size="9" font-weight="700" fill="#9AA0AA" text-anchor="start">COURSES</text>
<rect x="1074" y="764" width="309.1" height="350" fill="#FFFFFF" stroke="#9AA0AA" stroke-width="1.3" rx="4"/><rect x="1074" y="764" width="309.1" height="58.333333333333336" fill="#EDEFF2" stroke="#9AA0AA" stroke-width="1" rx="0"/><line x1="1074" y1="822.3333333333334" x2="1383.1" y2="822.3333333333334" stroke="#9AA0AA" stroke-width="1"/><rect x="1088.0" y="846.5" width="126.55000000000001" height="8" fill="#D8DBE0" rx="2"/><rect x="1242.55" y="846.5" width="126.55000000000001" height="8" fill="#D8DBE0" rx="2"/><line x1="1074" y1="880.6666666666667" x2="1383.1" y2="880.6666666666667" stroke="#9AA0AA" stroke-width="1"/><rect x="1088.0" y="904.8333333333334" width="126.55000000000001" height="8" fill="#EDEFF2" rx="2"/><rect x="1242.55" y="904.8333333333334" width="126.55000000000001" height="8" fill="#EDEFF2" rx="2"/><line x1="1074" y1="939.0000000000001" x2="1383.1" y2="939.0000000000001" stroke="#9AA0AA" stroke-width="1"/><rect x="1088.0" y="963.1666666666667" width="126.55000000000001" height="8" fill="#D8DBE0" rx="2"/><rect x="1242.55" y="963.1666666666667" width="126.55000000000001" height="8" fill="#D8DBE0" rx="2"/><line x1="1074" y1="997.3333333333335" x2="1383.1" y2="997.3333333333335" stroke="#9AA0AA" stroke-width="1"/><rect x="1088.0" y="1021.5000000000002" width="126.55000000000001" height="8" fill="#EDEFF2" rx="2"/><rect x="1242.55" y="1021.5000000000002" width="126.55000000000001" height="8" fill="#EDEFF2" rx="2"/><line x1="1074" y1="1055.6666666666667" x2="1383.1" y2="1055.6666666666667" stroke="#9AA0AA" stroke-width="1"/><rect x="1088.0" y="1079.8333333333335" width="126.55000000000001" height="8" fill="#D8DBE0" rx="2"/><rect x="1242.55" y="1079.8333333333335" width="126.55000000000001" height="8" fill="#D8DBE0" rx="2"/><line x1="1228.55" y1="764" x2="1228.55" y2="1114" stroke="#9AA0AA" stroke-width="1" opacity="0.5"/>
<rect x="1399.1" y="764" width="236.9" height="350" fill="#FFFFFF" stroke="#9AA0AA" stroke-width="1.3" rx="4"/>
<rect x="1413.1" y="780" width="140" height="11" fill="#D8DBE0" rx="2"/>
<rect x="1413.1" y="806" width="192.9" height="8" fill="#D8DBE0" rx="2"/>
<rect x="1413.1" y="828" width="192.9" height="8" fill="#D8DBE0" rx="2"/>
<rect x="1413.1" y="850" width="192.9" height="8" fill="#D8DBE0" rx="2"/>
<line x1="1104" y1="668" x2="1104" y2="648" stroke="#C0392B" stroke-width="1.2" stroke-dasharray="4,3"/><circle cx="1104" cy="668" r="2.5" fill="#C0392B"/><text x="1110" y="652" font-family="Helvetica, Arial, sans-serif" font-size="10.5" font-weight="600" fill="#C0392B" text-anchor="start">Quick-glance totals</text>
</svg>